HIERARCHY
ROOT Hips
{
	OFFSET 0.000000 0.000000 0.000000
	CHANNELS 6 Xposition Yposition Zposition Zrotation Yrotation Xrotation 
	JOINT LHipJoint
	{
		OFFSET 0.000000 0.000000 0.000000
		CHANNELS 3 Zrotation Yrotation Xrotation
		JOINT LeftUpLeg
		{
			OFFSET 1.363060 -1.794630 0.839290
			CHANNELS 3 Zrotation Yrotation Xrotation
			JOINT LeftLeg
			{
				OFFSET 2.448110 -6.726130 0.000000
				CHANNELS 3 Zrotation Yrotation Xrotation
				JOINT LeftFoot
				{
					OFFSET 2.562200 -7.039590 0.000000
					CHANNELS 3 Zrotation Yrotation Xrotation
					JOINT LeftToeBase
					{
						OFFSET 0.157640 -0.433110 2.322550
						CHANNELS 3 Zrotation Yrotation Xrotation
						End Site
						{
							OFFSET 0.000000 0.000000 0.000000
						}
					}
				}
			}
		}
	}
	JOINT RHipJoint
	{
		OFFSET 0.000000 0.000000 0.000000
		CHANNELS 3 Zrotation Yrotation Xrotation
		JOINT RightUpLeg
		{
			OFFSET -1.305520 -1.794630 0.839290
			CHANNELS 3 Zrotation Yrotation Xrotation
			JOINT RightLeg
			{
				OFFSET -2.542530 -6.985550 0.000000
				CHANNELS 3 Zrotation Yrotation Xrotation
				JOINT RightFoot
				{
					OFFSET -2.568260 -7.056230 0.000000
					CHANNELS 3 Zrotation Yrotation Xrotation
					JOINT RightToeBase
					{
						OFFSET -0.164730 -0.452590 2.363150
						CHANNELS 3 Zrotation Yrotation Xrotation
						End Site
						{
							OFFSET 0.000000 0.000000 0.000000
						}
					}
				}
			}
		}
	}
}
MOTION
Frames: 13
Frame Time: 0.008333
4.000742 17.191933 -0.151300 -172.227701 51.701112 -155.928878 -8.735758 2.477447 3.510788 -26.520451 3.331092 -34.857164 -4.240812 -1.517706 11.004296 1.454922 2.447851 -16.369162 -0.784200 -0.000000 -26.202700 9.242250 -5.099108 -0.771111 13.596809 -19.900932 -4.819865 3.250106 -0.480508 11.542957 0.463613 2.704145 10.101469 0.318500 0.000000 -73.109100
4.138500 17.139435 -0.245357 -171.754525 51.006651 -155.731392 -8.716300 2.537787 3.541192 -26.841677 3.582980 -34.593759 -4.273289 -1.589196 10.493330 1.431344 2.250095 -16.477001 -0.777399 0.000000 -25.737700 9.256430 -5.220821 -0.781863 13.637258 -20.221191 -4.578660 3.221109 -0.622551 12.767374 0.564026 3.800905 10.381320 0.662200 0.000000 -74.927700
4.276974 17.083437 -0.340988 -171.271566 50.381887 -155.498928 -8.707969 2.579789 3.611202 -26.941968 3.573078 -34.339211 -4.262885 -1.630096 10.256579 1.433444 2.185975 -16.628698 -0.788000 -0.000000 -24.382100 9.288326 -5.333871 -0.790548 13.627761 -20.504294 -4.494452 3.181313 -0.787571 14.238786 0.687097 5.263940 10.768236 1.128000 -0.000000 -77.198700
4.415960 17.024083 -0.437637 -170.800225 49.829845 -155.240644 -8.705367 2.603626 3.724680 -26.833747 3.264610 -34.113028 -4.209365 -1.638274 10.324471 1.470621 2.289591 -16.859968 -0.825000 -0.000000 -22.037100 9.343553 -5.433491 -0.796524 13.553814 -20.737367 -4.579384 3.122223 -0.972357 15.957941 0.821121 7.081229 11.296764 1.725800 0.000000 -79.751300
4.555061 16.961593 -0.534763 -170.368773 49.349316 -154.977785 -8.701189 2.611852 3.880160 -26.552691 2.648103 -33.935540 -4.115880 -1.611487 10.729914 1.549337 2.576193 -17.208557 -0.896600 -0.000000 -18.654200 9.429122 -5.514441 -0.803126 13.392703 -20.929795 -4.842780 3.034067 -1.172252 17.924863 0.949442 9.211102 11.998308 2.465200 -0.000000 -82.440900
4.693705 16.896333 -0.631861 -170.000513 48.935220 -154.731339 -8.689340 2.608333 4.069552 -26.148905 1.751191 -33.837193 -3.989044 -1.546466 11.510086 1.670250 3.031204 -17.703422 -1.008700 -0.000000 -14.298100 9.548029 -5.571961 -0.812856 13.131253 -21.087765 -5.283458 2.907807 -1.380323 20.130158 1.052219 11.558785 12.887313 3.346101 -0.000000 -85.018900
4.831203 16.828734 -0.728570 -169.710496 48.578691 -154.518896 -8.666827 2.597471 4.278350 -25.678699 0.638687 -33.852290 -3.837993 -1.439502 12.696752 1.826981 3.611932 -18.351689 -1.162700 0.000000 -9.214400 9.697887 -5.602636 -0.826722 12.770094 -21.210668 -5.888632 2.737323 -1.588513 22.550662 1.111628 13.973911 13.965033 4.353700 0.000000 -87.275300
4.966665 16.759270 -0.824582 -169.517866 48.270615 -154.370714 -8.631477 2.584390 4.488786 -25.207226 -0.606500 -33.988934 -3.672560 -1.289374 14.289806 2.008509 4.269255 -19.127926 -1.355500 -0.000000 -3.820500 9.877921 -5.603669 -0.852228 12.294101 -21.329880 -6.642048 2.520103 -1.791001 25.175882 1.117326 16.305975 15.226636 5.468400 -0.000000 -89.061400
5.099189 16.688571 -0.919770 -169.426325 48.000504 -154.303529 -8.585992 2.571642 4.682778 -24.783250 -1.894682 -34.241494 -3.500801 -1.098279 16.257429 2.200980 4.952943 -19.988475 178.421100 0.000000 -1.391600 10.080221 -5.573863 -0.892913 11.710005 -21.452346 -7.513780 2.258992 -1.982456 27.971755 1.066828 18.359103 16.658597 6.639600 0.000000 -90.453900
5.227563 16.617499 -1.014563 -169.416184 47.754290 -154.311549 -8.538618 2.558299 4.845330 -24.429195 -3.142837 -34.591796 -3.327887 -0.873096 18.535159 2.390733 5.618127 -20.891711 178.177500 0.000000 -6.025900 10.289999 -5.514176 -0.948322 11.049879 -21.560829 -8.468655 1.961454 -2.159913 30.898140 0.966162 19.915736 18.225901 7.773899 -0.000000 -91.410600
5.351070 16.547079 -1.109085 -169.487346 47.522541 -154.407035 -8.493003 2.543264 4.966908 -24.167675 -4.294798 -34.981475 -3.158834 -0.627272 21.010002 2.569472 6.244032 -21.805638 177.921700 0.000000 -9.889700 10.499865 -5.424163 -1.023562 10.319189 -21.665342 -9.476340 1.636135 -2.323212 33.927559 0.824084 20.808455 19.892169 8.759300 -0.000000 -91.978500
5.469018 16.478503 -1.203852 -169.640226 47.294193 -154.599427 -8.449856 2.525522 5.044287 -24.017393 -5.320266 -35.335938 -2.998589 -0.377564 23.542461 2.733628 6.826008 -22.707250 177.658599 0.000000 -12.917900 10.705905 -5.302648 -1.124048 9.513457 -21.783752 -10.512313 1.293440 -2.473037 37.027693 0.646683 20.918645 21.626636 9.474900 0.000000 -92.441000
5.580943 16.413144 -1.299638 -169.849189 47.055554 -154.863556 -8.415247 2.502361 5.078106 -23.962665 -6.195640 -35.611775 -2.851347 -0.138457 26.012830 2.880613 7.350592 -23.595181 177.392401 0.000000 -15.186500 10.895971 -5.151169 -1.243999 8.674717 -21.883875 -11.557392 0.944930 -2.610293 40.159838 0.438103 20.129936 23.349368 9.764001 -0.000000 -92.577700
